<?xml version="1.0" encoding="iso-8859-1"?>
<!-- Uploaded to: SVG Repo, www.svgrepo.com, Generator: SVG Repo Mixer Tools -->
<svg fill="#000000" version="1.1" id="Layer_1" xmlns="http://www.w3.org/2000/svg" xmlns:xlink="http://www.w3.org/1999/xlink" 
	 viewBox="0 0 491.52 491.52" xml:space="preserve">
<g>
	<g>
		<path d="M440.32,348.16H317.44c-28.23,0-51.2,22.97-51.2,51.2h20.48c0-16.94,13.78-30.72,30.72-30.72h122.88
			c16.94,0,30.72,13.78,30.72,30.72v40.96c0,16.94-13.78,30.72-30.72,30.72H317.44c-16.94,0-30.72-13.78-30.72-30.72h-20.48
			c0,28.23,22.97,51.2,51.2,51.2h122.88c28.23,0,51.2-22.97,51.2-51.2v-40.96C491.52,371.13,468.55,348.16,440.32,348.16z"/>
	</g>
</g>
<g>
	<g>
		<path d="M174.08,471.04H51.2c-16.94,0-30.72-13.78-30.72-30.72v-40.96c0-16.94,13.78-30.72,30.72-30.72h122.88
			c16.94,0,30.72,13.78,30.72,30.72h20.48c0-28.23-22.97-51.2-51.2-51.2H51.2c-28.23,0-51.2,22.97-51.2,51.2v40.96
			c0,28.23,22.97,51.2,51.2,51.2h122.88c28.23,0,51.2-22.97,51.2-51.2H204.8C204.8,457.26,191.02,471.04,174.08,471.04z"/>
	</g>
</g>
<g>
	<g>
		<rect x="168.96" y="409.6" width="153.6" height="20.48"/>
	</g>
</g>
<g>
	<g>
		<polygon points="304.69,102.25 223.7,183.23 186.83,146.36 172.35,160.84 223.7,212.19 319.17,116.73 		"/>
	</g>
</g>
<g>
	<g>
		<path d="M245.76,0c-84.7,0-153.6,68.9-153.6,153.6s68.9,153.6,153.6,153.6s153.6-68.9,153.6-153.6S330.46,0,245.76,0z
			 M245.76,286.72c-73.4,0-133.12-59.72-133.12-133.12S172.36,20.48,245.76,20.48S378.88,80.2,378.88,153.6
			S319.16,286.72,245.76,286.72z"/>
	</g>
</g>
</svg>